<?xml version="1.0" encoding="utf-8"?>
<!-- Generator: Adobe Illustrator 16.0.0, SVG Export Plug-In . SVG Version: 6.00 Build 0)  -->
<!DOCTYPE svg PUBLIC "-//W3C//DTD SVG 1.1//EN" "http://www.w3.org/Graphics/SVG/1.1/DTD/svg11.dtd">
<svg version="1.1" id="圖層_3" xmlns="http://www.w3.org/2000/svg" xmlns:xlink="http://www.w3.org/1999/xlink" x="0px" y="0px"
	 width="63px" height="63px" viewBox="0 0 63 63" enable-background="new 0 0 63 63" xml:space="preserve">
<g id="橢圓_4_2_">
	<g>
		<circle fill="#F4F4F4" cx="31.5" cy="31.5" r="30.5"/>
	</g>
</g>
<g enable-background="new    ">
	<path fill="#2B535C" d="M15.03,35.945c0-2.695,0.735-4.816,2.205-6.364s3.469-2.322,5.999-2.322c2.383,0,4.25,0.747,5.603,2.241
		s2.029,3.56,2.029,6.196c0,2.559-0.732,4.619-2.197,6.182s-3.403,2.344-5.815,2.344c-2.334,0-4.221-0.752-5.662-2.256
		S15.03,38.455,15.03,35.945z M17.521,35.843c0,1.914,0.5,3.442,1.501,4.585s2.336,1.714,4.006,1.714
		c1.699,0,3.015-0.557,3.948-1.67s1.399-2.676,1.399-4.688c0-2.061-0.461-3.649-1.384-4.768s-2.244-1.678-3.962-1.678
		c-1.68,0-3.018,0.578-4.014,1.736C18.019,32.231,17.521,33.821,17.521,35.843z"/>
	<path fill="#2B535C" d="M48.326,43.841h-3.472l-7.28-7.764h-0.073v7.764h-2.446V19.861h2.446v15.205h0.073l6.914-7.427h3.237
		l-7.617,7.837L48.326,43.841z"/>
</g>
</svg>
