<?xml version="1.0" encoding="utf-8"?>
<!-- Generator: Adobe Illustrator 16.0.0, SVG Export Plug-In . SVG Version: 6.00 Build 0)  -->
<!DOCTYPE svg PUBLIC "-//W3C//DTD SVG 1.1//EN" "http://www.w3.org/Graphics/SVG/1.1/DTD/svg11.dtd">
<svg version="1.1" xmlns="http://www.w3.org/2000/svg" xmlns:xlink="http://www.w3.org/1999/xlink" x="0px" y="0px" width="63px"
	 height="63px" viewBox="0 0 63 63" enable-background="new 0 0 63 63" xml:space="preserve">
<g id="窗_1_">
	<g id="橢圓_4">
		<g>
			<circle fill="#2B535C" cx="31.5" cy="31.5" r="30.5"/>
		</g>
	</g>
</g>
<g id="圖層_5">
	<g>
		<path fill="#F4F4F4" d="M52.986,17.907H28.073c-1.797,3.578-3.984,6.953-6.563,10.125v24.164h-2.602V31.22
			c-2.375,2.438-4.664,4.352-6.867,5.742l-0.867-2.438c6-4.625,10.656-10.164,13.968-16.617H11.222v-2.484h15.234
			c0.797-1.406,1.656-3.234,2.578-5.484l2.508,0.82c-0.844,1.953-1.586,3.508-2.227,4.664h23.671V17.907z M52.986,38.978H41.08
			v9.516c0,0.813-0.211,1.516-0.633,2.109s-0.996,1.012-1.723,1.254s-2.16,0.363-4.301,0.363c-1.266,0-2.531-0.047-3.796-0.141
			l-1.008-2.578c1.156,0.109,2.437,0.164,3.843,0.164c2.516,0,3.992-0.113,4.43-0.34s0.656-0.551,0.656-0.973v-9.375h-14.46V36.54
			h14.46v-3.656c2.375-1.578,4.914-3.656,7.617-6.234H27.393v-2.484h22.335v2.484c-3,3-5.883,5.461-8.648,7.383v2.508h11.906V38.978
			z"/>
	</g>
</g>
</svg>
