<?xml version="1.0" encoding="utf-8"?>
<!-- Generator: Adobe Illustrator 16.0.0, SVG Export Plug-In . SVG Version: 6.00 Build 0)  -->
<!DOCTYPE svg PUBLIC "-//W3C//DTD SVG 1.1//EN" "http://www.w3.org/Graphics/SVG/1.1/DTD/svg11.dtd">
<svg version="1.1" xmlns="http://www.w3.org/2000/svg" xmlns:xlink="http://www.w3.org/1999/xlink" x="0px" y="0px" width="63px"
	 height="63px" viewBox="0 0 63 63" enable-background="new 0 0 63 63" xml:space="preserve">
<g id="圖層_2">
	<g id="橢圓_4_2_">
		<g>
			<circle fill="#F4F4F4" cx="31.5" cy="31.5" r="30.5"/>
		</g>
	</g>
</g>
<g id="圖層_5">
	<g>
		<path fill="#2B535C" d="M52.166,16.993H16.518v13.828c0,5-0.246,9.059-0.738,12.176s-1.465,6.066-2.917,8.848l-2.016-1.43
			c2.234-4.906,3.351-11.422,3.351-19.547V14.603h17.086c-0.297-1.047-0.852-2.266-1.664-3.656l2.25-0.961
			c0.859,1.563,1.531,3.102,2.015,4.617h18.281V16.993z M37.33,48.821c-5.359,1.109-11.593,2.195-18.703,3.258l-0.539-2.344
			c1.094-0.094,3.063-0.367,5.906-0.82c-0.109-0.906-0.75-3.125-1.922-6.656l1.594-1.547h-3.422v-8.531h15.375v8.531h-3.328
			l1.734,1.289c-0.625,1.938-1.281,3.766-1.969,5.484c1.609-0.203,3.367-0.539,5.273-1.008V48.821z M37.33,23.532h-7.757v3.539
			h6.703v2.227H19.87v-2.227h7.195v-3.539h-8.438v-2.25h8.438v-2.602h2.508v2.602h7.757V23.532z M33.158,38.415v-3.938H22.706v3.938
			H33.158z M31.823,40.712h-7.688c1.156,3.359,1.906,5.953,2.25,7.781l3.094-0.492C30.495,45.501,31.276,43.071,31.823,40.712z
			 M43.33,40.993l-2.156,0.82c-0.516-2.516-1.523-5.344-3.023-8.484l2.063-0.727C41.416,35.087,42.455,37.884,43.33,40.993z
			 M52.752,27.985h-4.031v20.508c0,2.5-1.266,3.75-3.797,3.75h-4.758l-0.82-2.367h5.344c1.047,0,1.57-0.586,1.57-1.758V27.985
			h-8.016v-2.25h8.016v-6.563h2.461v6.563h4.031V27.985z"/>
	</g>
</g>
</svg>
