<?xml version="1.0" encoding="utf-8"?>
<!-- Generator: Adobe Illustrator 16.0.0, SVG Export Plug-In . SVG Version: 6.00 Build 0)  -->
<!DOCTYPE svg PUBLIC "-//W3C//DTD SVG 1.1//EN" "http://www.w3.org/Graphics/SVG/1.1/DTD/svg11.dtd">
<svg version="1.1" id="圖層_3" xmlns="http://www.w3.org/2000/svg" xmlns:xlink="http://www.w3.org/1999/xlink" x="0px" y="0px"
	 width="63px" height="63px" viewBox="0 0 63 63" enable-background="new 0 0 63 63" xml:space="preserve">
<g id="橢圓_4_2_">
	<g>
		<circle fill="#F4F4F4" cx="31.5" cy="31.5" r="30.5"/>
	</g>
</g>
<g enable-background="new    ">
	<path fill="#2B535C" d="M35.303,45.205H31.98l-2.953-7.734H17.355l-2.76,7.734h-3.34l10.477-27.229h3.041L35.303,45.205z
		 M28.007,34.729l-4.359-11.76c-0.117-0.328-0.252-0.926-0.404-1.793h-0.088c-0.129,0.797-0.275,1.395-0.439,1.793l-4.307,11.76
		H28.007z"/>
	<path fill="#2B535C" d="M39.398,27.152c1.91-1.23,4.096-1.846,6.557-1.846c4.512,0,6.768,2.396,6.768,7.189v12.709h-2.936v-3.059
		h-0.105c-1.348,2.344-3.34,3.516-5.977,3.516c-1.922,0-3.438-0.513-4.545-1.538s-1.66-2.382-1.66-4.069
		c0-3.598,2.133-5.701,6.398-6.311L49.77,32.9c0-3.375-1.348-5.063-4.043-5.063c-2.355,0-4.465,0.803-6.328,2.408V27.152z
		 M45.006,35.977c-1.664,0.223-2.822,0.624-3.473,1.204s-0.975,1.474-0.975,2.681c0,0.973,0.348,1.764,1.045,2.373
		s1.609,0.914,2.734,0.914c1.559,0,2.854-0.557,3.885-1.67s1.547-2.502,1.547-4.166v-1.969L45.006,35.977z"/>
</g>
</svg>
