<?xml version="1.0" encoding="utf-8"?>
<!-- Generator: Adobe Illustrator 16.0.0, SVG Export Plug-In . SVG Version: 6.00 Build 0)  -->
<!DOCTYPE svg PUBLIC "-//W3C//DTD SVG 1.1//EN" "http://www.w3.org/Graphics/SVG/1.1/DTD/svg11.dtd">
<svg version="1.1" id="旋轉_1_" xmlns="http://www.w3.org/2000/svg" xmlns:xlink="http://www.w3.org/1999/xlink" x="0px" y="0px"
	 width="63px" height="63px" viewBox="0 0 63 63" enable-background="new 0 0 63 63" xml:space="preserve">
<g id="橢圓_4">
	<g>
		<circle fill="#2B535C" cx="31.5" cy="31.5" r="30.5"/>
	</g>
</g>
<g id="形狀_18">
	<g>
		<path fill="#F4F4F4" d="M46.56,24.801c-2.978-6.645-9.776-10.533-17.024-9.679c-3.502,0.413-6.559,1.867-9.175,4.232
			c-0.169,0.153-0.256,0.176-0.427,0.002c-0.865-0.876-1.746-1.737-2.621-2.604c-0.42-0.416-0.902-0.501-1.444-0.272
			c-0.609,0.258-0.871,0.722-0.87,1.375c0.006,3.131,0.002,6.262,0.003,9.393c0,0.928,0.571,1.494,1.502,1.495
			c1.565,0.001,3.13,0,4.696,0c1.604-0.001,3.208,0,4.811-0.001c0.448,0,0.817-0.161,1.08-0.537
			c0.451-0.646,0.401-1.266-0.156-1.831c-0.905-0.917-1.811-1.833-2.726-2.742c-0.147-0.146-0.166-0.22,0.005-0.367
			c2.792-2.4,6.015-3.286,9.596-2.507c5.854,1.272,9.514,6.774,8.52,12.64c-0.846,4.981-5.191,8.861-10.234,9.075
			c-3.727,0.159-6.792-1.229-9.163-4.119c-0.409-0.498-0.816-0.524-1.273-0.064c-0.875,0.881-1.749,1.762-2.622,2.643
			c-0.492,0.496-0.501,0.796-0.047,1.327c4.584,5.363,12.158,7.193,18.693,4.518C46.363,43.221,50.369,33.304,46.56,24.801z"/>
	</g>
</g>
</svg>
