<?xml version="1.0" encoding="utf-8"?>
<!-- Generator: Adobe Illustrator 16.0.0, SVG Export Plug-In . SVG Version: 6.00 Build 0)  -->
<!DOCTYPE svg PUBLIC "-//W3C//DTD SVG 1.1//EN" "http://www.w3.org/Graphics/SVG/1.1/DTD/svg11.dtd">
<svg version="1.1" xmlns="http://www.w3.org/2000/svg" xmlns:xlink="http://www.w3.org/1999/xlink" x="0px" y="0px" width="63px"
	 height="63px" viewBox="0 0 63 63" enable-background="new 0 0 63 63" xml:space="preserve">
<g id="圖層_2">
	<g id="橢圓_4_2_">
		<g>
			<circle fill="#F4F4F4" cx="31.5" cy="31.5" r="30.5"/>
		</g>
	</g>
</g>
<g id="圖層_5">
	<g>
		<path fill="#2B535C" d="M20.385,28.993l-1.477,2.063c-1.922-1.969-4.5-4.016-7.734-6.141l1.547-2.016
			C15.674,24.806,18.229,26.837,20.385,28.993z M21.206,36.681c-2.453,6.031-5.109,11.086-7.968,15.164l-1.875-1.828
			c2.765-3.891,5.359-8.813,7.781-14.766L21.206,36.681z M22.073,16.243l-1.57,1.922c-2.25-2.281-4.781-4.352-7.593-6.211
			l1.593-2.063C17.034,11.61,19.557,13.728,22.073,16.243z M53.221,33.329l-1.57,2.109c-6.828-4.813-11.664-9.344-14.508-13.594
			c-3.781,4.734-8.695,9.203-14.742,13.406l-1.805-1.734c7.766-5.328,13.187-10.563,16.265-15.703l2.25,0.914
			c-0.094,0.219-0.25,0.523-0.469,0.914C42.096,24.829,46.955,29.392,53.221,33.329z M34.658,11.392
			c-3.609,4.203-7.179,7.484-10.71,9.844l-1.922-1.781c3.625-2.359,7.18-5.578,10.664-9.656L34.658,11.392z M47.479,52.032h-2.508
			v-3.211H29.127v3.211h-2.531V33.704h20.882V52.032z M44.971,46.384V36.212H29.127v10.172H44.971z M52.119,19.548l-1.664,1.734
			c-3.313-3.703-7.047-6.875-11.203-9.516l1.641-1.828C45.674,13.095,49.416,16.298,52.119,19.548z"/>
	</g>
</g>
</svg>
