<?xml version="1.0" encoding="utf-8"?>
<!-- Generator: Adobe Illustrator 16.0.0, SVG Export Plug-In . SVG Version: 6.00 Build 0)  -->
<!DOCTYPE svg PUBLIC "-//W3C//DTD SVG 1.1//EN" "http://www.w3.org/Graphics/SVG/1.1/DTD/svg11.dtd">
<svg version="1.1" xmlns="http://www.w3.org/2000/svg" xmlns:xlink="http://www.w3.org/1999/xlink" x="0px" y="0px" width="63px"
	 height="63px" viewBox="0 0 63 63" enable-background="new 0 0 63 63" xml:space="preserve">
<g id="圖層_2">
	<g id="橢圓_4_2_">
		<g>
			<circle fill="#F4F4F4" cx="31.5" cy="31.5" r="30.5"/>
		</g>
	</g>
</g>
<g id="圖層_5">
	<g>
		<path fill="#2B535C" d="M23.174,52.079h-2.344V33.423h-4.523c-0.203,8.828-1.336,14.953-3.398,18.375l-2.063-1.289
			c1.938-3.625,2.976-9.32,3.117-17.086h-2.929v-2.297h9.796v-6.633H13.05V12.399h2.414v9.75h5.367V10.29h2.344V52.079z
			 M52.705,30.165H25.19v-2.273h12.632V15.798H26.292v-2.25h11.531v-3.164h2.484v3.164H51.65v2.25H40.307v12.094h12.398V30.165z
			 M36.135,25.126l-1.617,1.477c-1.266-1.859-2.5-3.313-3.703-4.359c-1.109,1.813-2.25,3.219-3.422,4.219l-1.852-1.242
			c2.375-2.203,4.164-5.008,5.367-8.414l2.062,0.633c-0.188,0.656-0.555,1.617-1.101,2.883
			C33.369,21.649,34.791,23.251,36.135,25.126z M50.689,52.079h-2.414v-2.156H29.713v2.156h-2.461V33.282h23.437V52.079z
			 M48.275,47.626V35.532H29.713v12.094H48.275z M44.924,45.142H33.018v-7.219h11.906V45.142z M42.533,43.009v-2.977h-7.172v2.977
			H42.533z M52.119,24.915l-1.477,1.641c-1.5-1.875-2.859-3.281-4.078-4.219c-1.156,1.813-2.234,3.172-3.234,4.078l-1.898-1.289
			c2.297-2.094,3.891-4.836,4.781-8.227l2.227,0.492c-0.125,0.594-0.43,1.555-0.914,2.883
			C49.541,21.884,51.072,23.431,52.119,24.915z"/>
	</g>
</g>
</svg>
