<?xml version="1.0" encoding="utf-8"?>
<!-- Generator: Adobe Illustrator 16.0.0, SVG Export Plug-In . SVG Version: 6.00 Build 0)  -->
<!DOCTYPE svg PUBLIC "-//W3C//DTD SVG 1.1//EN" "http://www.w3.org/Graphics/SVG/1.1/DTD/svg11.dtd">
<svg version="1.1" id="樓梯_1_" xmlns="http://www.w3.org/2000/svg" xmlns:xlink="http://www.w3.org/1999/xlink" x="0px" y="0px"
	 width="63px" height="63px" viewBox="0 0 63 63" enable-background="new 0 0 63 63" xml:space="preserve">
<g id="圖層_5">
	<rect x="12.5" y="19.5" fill="none" stroke="#484848" stroke-width="2" stroke-miterlimit="10" width="38" height="24"/>
</g>
<g id="群組_8_1_">
	<g id="形狀_15">
		<g>
			<rect x="12.5" y="30.25" fill="#F4F4F4" width="38" height="2.5"/>
		</g>
		<g>
			<rect x="12.5" y="30.25" fill="none" stroke="#484848" stroke-miterlimit="10" width="38" height="2.5"/>
		</g>
	</g>
</g>
<g id="形狀_16_4_">
	<g>
		<rect x="25.25" y="19.563" fill="#F4F4F4" width="1.885" height="23.875"/>
	</g>
	<g>
		<rect x="25.25" y="19.563" fill="none" stroke="#484848" stroke-miterlimit="10" width="1.885" height="23.875"/>
	</g>
</g>
<g id="形狀_16_拷貝_4_">
	<g>
		<rect x="32.019" y="19.563" fill="#F4F4F4" width="1.885" height="23.875"/>
	</g>
	<g>
		<rect x="32.019" y="19.563" fill="none" stroke="#484848" stroke-miterlimit="10" width="1.885" height="23.875"/>
	</g>
</g>
<g id="形狀_16_拷貝_2_4_">
	<g>
		<rect x="37.843" y="19.563" fill="#F4F4F4" width="1.886" height="23.875"/>
	</g>
	<g>
		<rect x="37.843" y="19.563" fill="none" stroke="#484848" stroke-miterlimit="10" width="1.886" height="23.875"/>
	</g>
</g>
<g id="形狀_16_拷貝_3_4_">
	<g>
		<rect x="43.842" y="19.563" fill="#F4F4F4" width="1.884" height="23.875"/>
	</g>
	<g>
		<rect x="43.842" y="19.563" fill="none" stroke="#484848" stroke-miterlimit="10" width="1.884" height="23.875"/>
	</g>
</g>
<g id="橢圓_4_2_">
	<g>
		<circle fill="#F4F4F4" cx="31.5" cy="31.5" r="30.5"/>
	</g>
</g>
<rect x="12.5" y="19.5" fill="none" stroke="#2B535C" stroke-width="2" stroke-miterlimit="10" width="38" height="24"/>
<g id="形狀_15_2_">
	<g>
		<rect x="12.5" y="30.25" fill="#2B535C" width="38" height="2.5"/>
	</g>
</g>
<g id="形狀_16_1_">
	<g>
		<rect x="25.25" y="19.563" fill="#2B535C" width="1.885" height="23.875"/>
	</g>
</g>
<g id="形狀_16_拷貝_1_">
	<g>
		<rect x="32.019" y="19.563" fill="#2B535C" width="1.885" height="23.875"/>
	</g>
</g>
<g id="形狀_16_拷貝_2_1_">
	<g>
		<rect x="37.843" y="19.563" fill="#2B535C" width="1.886" height="23.875"/>
	</g>
</g>
<g id="形狀_16_拷貝_3_1_">
	<g>
		<rect x="43.842" y="19.563" fill="#2B535C" width="1.884" height="23.875"/>
	</g>
</g>
</svg>
