<?xml version="1.0" encoding="utf-8"?>
<!-- Generator: Adobe Illustrator 16.0.0, SVG Export Plug-In . SVG Version: 6.00 Build 0)  -->
<!DOCTYPE svg PUBLIC "-//W3C//DTD SVG 1.1//EN" "http://www.w3.org/Graphics/SVG/1.1/DTD/svg11.dtd">
<svg version="1.1" xmlns="http://www.w3.org/2000/svg" xmlns:xlink="http://www.w3.org/1999/xlink" x="0px" y="0px" width="63px"
	 height="63px" viewBox="0 0 63 63" enable-background="new 0 0 63 63" xml:space="preserve">
<g id="圖層_2">
	<g id="橢圓_4_2_">
		<g>
			<circle fill="#F4F4F4" cx="31.5" cy="31.5" r="30.5"/>
		</g>
	</g>
</g>
<g id="圖層_6">
	<g>
		<path fill="#2B535C" d="M52.986,38.228H33.463V48.54c0,1.234-0.406,2.137-1.219,2.707c-0.812,0.57-2.773,0.855-5.882,0.855
			c-0.844,0-1.727-0.023-2.648-0.07l-0.914-2.719c1.297,0.125,2.594,0.188,3.891,0.188c2.031,0,3.227-0.105,3.586-0.316
			s0.539-0.535,0.539-0.973v-9.984H11.222v-2.555h19.593v-3.117c4.234-2.5,7.546-4.641,9.937-6.422H18.956v-2.508h25.921v2.508
			c-3.047,2.438-6.852,5.008-11.414,7.711v1.828h19.523V38.228z M51.018,26.181h-2.531v-8.742H15.745v8.742H13.19v-11.25h18.14
			c-0.422-1.016-1.234-2.313-2.438-3.891l2.297-1.195c1.109,1.531,2.117,3.227,3.023,5.086h16.805V26.181z"/>
	</g>
</g>
</svg>
