<?xml version="1.0" encoding="utf-8"?>
<!-- Generator: Adobe Illustrator 16.0.0, SVG Export Plug-In . SVG Version: 6.00 Build 0)  -->
<!DOCTYPE svg PUBLIC "-//W3C//DTD SVG 1.1//EN" "http://www.w3.org/Graphics/SVG/1.1/DTD/svg11.dtd">
<svg version="1.1" xmlns="http://www.w3.org/2000/svg" xmlns:xlink="http://www.w3.org/1999/xlink" x="0px" y="0px" width="63px"
	 height="63px" viewBox="0 0 63 63" enable-background="new 0 0 63 63" xml:space="preserve">
<g id="窗_1_">
	<g id="橢圓_4">
		<g>
			<circle fill="#2B535C" cx="31.5" cy="31.5" r="30.5"/>
		</g>
	</g>
</g>
<g id="圖層_6">
	<g>
		<path fill="#F4F4F4" d="M53.268,35.673l-1.055,2.461c-8.141-1.047-14.75-2.813-19.828-5.297
			c-5.515,2.297-12.039,4.023-19.569,5.18l-1.547-2.391c7.296-1,13.367-2.438,18.21-4.313c-2.766-1.688-5.156-3.516-7.172-5.484
			c-2.359,1.844-4.594,3.383-6.703,4.617l-1.734-1.922c5.781-3.125,9.953-6.805,12.516-11.039l2.508,1.008
			c-0.797,1.297-1.547,2.336-2.25,3.117h18.609v2.391c-2.313,2.578-5.703,5.094-10.172,7.547
			C39.893,33.595,45.955,34.97,53.268,35.673z M51.205,24.001h-2.438v-7.664H15.393v7.523h-2.531V13.97h18.468
			c-0.344-0.938-1.047-2.07-2.109-3.398l2.695-0.82c0.89,1.422,1.671,2.828,2.343,4.219h16.945V24.001z M46.354,51.985h-2.484
			v-2.109H20.338v2.109h-2.484V38.696h28.5V51.985z M43.869,47.392v-6.234H20.338v6.234H43.869z M41.619,24.001H24.487l-0.258,0.258
			c2.25,2.328,4.922,4.297,8.015,5.906C36.166,28.337,39.291,26.282,41.619,24.001z"/>
	</g>
</g>
</svg>
