<?xml version="1.0" encoding="utf-8"?>
<!-- Generator: Adobe Illustrator 16.0.0, SVG Export Plug-In . SVG Version: 6.00 Build 0)  -->
<!DOCTYPE svg PUBLIC "-//W3C//DTD SVG 1.1//EN" "http://www.w3.org/Graphics/SVG/1.1/DTD/svg11.dtd">
<svg version="1.1" xmlns="http://www.w3.org/2000/svg" xmlns:xlink="http://www.w3.org/1999/xlink" x="0px" y="0px" width="63px"
	 height="63px" viewBox="0 0 63 63" enable-background="new 0 0 63 63" xml:space="preserve">
<g id="窗_1_">
	<g id="橢圓_4">
		<g>
			<circle fill="#2B535C" cx="31.5" cy="31.5" r="30.5"/>
		</g>
	</g>
</g>
<g id="圖層_6">
	<g>
		<path fill="#F4F4F4" d="M52.893,16.618H17.268v8.391c0,12.734-1.453,21.828-4.359,27.281l-1.969-1.547
			c2.625-5.047,3.937-12.664,3.937-22.852v-13.57h16.617c-0.422-1.156-1.031-2.375-1.828-3.656l2.297-0.867
			c0.859,1.281,1.625,2.789,2.296,4.523h18.633V16.618z M34.354,42.868h-9.07l2.016,1.102c-1.375,2.766-3.563,5.523-6.563,8.273
			l-1.875-1.688c2.563-1.906,4.625-4.469,6.188-7.688h-3.352V19.829h12.656V42.868z M32.057,26.462v-4.313h-7.921v4.313H32.057z
			 M32.057,33.376v-4.57h-7.921v4.57H32.057z M32.057,40.478v-4.711h-7.921v4.711H32.057z M36.533,50.368l-2.227,1.289
			c-0.938-1.813-2.468-3.781-4.593-5.906l2.109-1.43C33.697,46.165,35.268,48.181,36.533,50.368z M41.994,43.501h-2.391V21.188
			h2.391V43.501z M50.689,48.118c0,1.781-0.516,2.914-1.547,3.398s-3.57,0.672-7.617,0.563L40.4,49.595
			c1.078,0.047,2.297,0.07,3.656,0.07c1.922,0,3.105-0.113,3.551-0.34s0.668-0.684,0.668-1.371V18.962h2.414V48.118z"/>
	</g>
</g>
</svg>
