<?xml version="1.0" encoding="utf-8"?>
<!-- Generator: Adobe Illustrator 16.0.0, SVG Export Plug-In . SVG Version: 6.00 Build 0)  -->
<!DOCTYPE svg PUBLIC "-//W3C//DTD SVG 1.1//EN" "http://www.w3.org/Graphics/SVG/1.1/DTD/svg11.dtd">
<svg version="1.1" xmlns="http://www.w3.org/2000/svg" xmlns:xlink="http://www.w3.org/1999/xlink" x="0px" y="0px" width="63px"
	 height="63px" viewBox="0 0 63 63" enable-background="new 0 0 63 63" xml:space="preserve">
<g id="窗_1_">
	<g id="橢圓_4">
		<g>
			<circle fill="#2B535C" cx="31.5" cy="31.5" r="30.5"/>
		</g>
	</g>
</g>
<g id="圖層_6">
	<g>
		<path fill="#F4F4F4" d="M49.869,12.212c-8.125,1.844-18.585,2.766-31.382,2.766v3.703h31.335v9.797h-31.5
			c-0.094,9.141-1.883,16.898-5.367,23.273L10.8,50.368c3.453-6.094,5.179-13.891,5.179-23.391V12.587
			c1.563,0.047,3.156,0.07,4.781,0.07c10.922,0,20.398-0.875,28.429-2.625L49.869,12.212z M47.314,26.228v-5.297H18.487v5.297
			H47.314z M52.893,35.813H31.963c-0.172,1.766-0.398,3.141-0.68,4.125h18.257c-0.234,2.531-0.547,4.699-0.938,6.504
			s-0.852,3.043-1.383,3.715s-1.219,1.148-2.063,1.43s-2.477,0.422-4.898,0.422c-1,0-2.242-0.023-3.727-0.07l-0.82-2.297
			c1.172,0.063,3.586,0.094,7.242,0.094c1.313,0,2.184-0.52,2.613-1.559s0.824-3.012,1.184-5.918H30.534
			c-2.047,4.438-5.523,7.75-10.43,9.938l-1.336-2.063c6.813-3.109,10.383-7.883,10.711-14.32h-9.234v-2.297h14.507
			c-0.391-0.703-1.047-1.68-1.969-2.93l2.391-0.914c0.953,1.266,1.805,2.547,2.555,3.844h15.164V35.813z"/>
	</g>
</g>
</svg>
