<?xml version="1.0" encoding="utf-8"?>
<!-- Generator: Adobe Illustrator 16.0.0, SVG Export Plug-In . SVG Version: 6.00 Build 0)  -->
<!DOCTYPE svg PUBLIC "-//W3C//DTD SVG 1.1//EN" "http://www.w3.org/Graphics/SVG/1.1/DTD/svg11.dtd">
<svg version="1.1" xmlns="http://www.w3.org/2000/svg" xmlns:xlink="http://www.w3.org/1999/xlink" x="0px" y="0px" width="63px"
	 height="63px" viewBox="0 0 63 63" enable-background="new 0 0 63 63" xml:space="preserve">
<g id="圖層_9">
	<g id="橢圓_4_2_">
		<g>
			<circle fill="#F4F4F4" cx="31.5" cy="31.5" r="30.5"/>
		</g>
	</g>
</g>
<g id="圖層_10">
	<g>
		<path fill="#2B535C" d="M26.502,30.633l-1.828,1.734c-0.984-1.812-2.141-3.492-3.469-5.039v24.656h-2.531V27.071
			c-1.984,5.062-4.047,9.046-6.187,11.953l-1.547-2.063c3.234-4.531,5.781-9.859,7.64-15.984h-7.265V18.54h7.359v-8.461h2.531v8.461
			h4.43v2.438h-4.43v2.695C23.643,26.391,25.409,28.711,26.502,30.633z M51.885,34.031c0,6.906-0.41,10.996-1.23,12.27
			s-2.137,1.91-3.949,1.91l-2.742,0.047l-1.008-2.602c0.656,0.063,1.32,0.094,1.992,0.094c1.594,0,2.672-0.137,3.234-0.41
			s0.902-1.477,1.02-3.609s0.176-3.879,0.176-5.238h-8.578v15.492h-2.461V39.609c-2.938,3.719-6.882,7.125-11.835,10.219
			l-1.594-1.875c5.984-3.656,10.21-7.477,12.679-11.461H27.346l1.313-10.57h9.679v-5.461H27.557v-2.344h23.414V28.29H40.799v5.742
			H51.885z M38.338,34.031V28.29h-7.429l-0.773,5.742H38.338z M36.674,15.61l-2.016,1.383c-1.016-1.797-2.391-3.617-4.125-5.461
			l1.968-1.5C34.158,11.907,35.549,13.766,36.674,15.61z M48.486,25.922v-5.461h-7.688v5.461H48.486z M49.377,11.204
			c-1.469,2.313-3.164,4.328-5.086,6.047l-1.969-1.5c1.922-1.813,3.539-3.75,4.852-5.813L49.377,11.204z"/>
	</g>
</g>
</svg>
