<?xml version="1.0" encoding="utf-8"?>
<!-- Generator: Adobe Illustrator 16.0.0, SVG Export Plug-In . SVG Version: 6.00 Build 0)  -->
<!DOCTYPE svg PUBLIC "-//W3C//DTD SVG 1.1//EN" "http://www.w3.org/Graphics/SVG/1.1/DTD/svg11.dtd">
<svg version="1.1" xmlns="http://www.w3.org/2000/svg" xmlns:xlink="http://www.w3.org/1999/xlink" x="0px" y="0px" width="63px"
	 height="63px" viewBox="0 0 63 63" enable-background="new 0 0 63 63" xml:space="preserve">
<g id="窗_1_">
	<g id="橢圓_4">
		<g>
			<circle fill="#2B535C" cx="31.5" cy="31.5" r="30.5"/>
		</g>
	</g>
</g>
<g id="圖層_6">
	<g>
		<path fill="#F4F4F4" d="M51.346,21.704h-2.391v-5.227H37.822v3.586c0,0.844,0.445,1.266,1.336,1.266h7.641v2.344h-8.109
			c-2.109,0-3.164-0.977-3.164-2.93v-4.266h-5.296c-0.688,2.234-2.086,4.105-4.195,5.613s-4.422,2.418-6.938,2.73l-1.523-2.109
			c5.266-0.563,8.656-2.641,10.172-6.234H15.463v5.133h-2.554v-7.547H31.19c-1.063-1.469-1.859-2.539-2.391-3.211l2.156-1.148
			c0.813,0.906,1.867,2.359,3.164,4.359h17.227V21.704z M49.189,52.242h-2.531v-2.227H17.667v2.227h-2.461V27.071h12.492
			c1.422-2.406,2.336-4.047,2.742-4.922l2.343,0.75c-0.516,1.109-1.265,2.5-2.25,4.172h18.656V52.242z M46.658,47.578V29.485H17.667
			v18.093H46.658z M43.916,44.063l-1.594,1.688c-2.641-1.938-5.211-3.664-7.711-5.18c-4.031,2.688-7.906,4.547-11.625,5.578
			l-1.688-1.828c4.172-1.281,7.867-2.977,11.085-5.086c-1.656-0.953-3.031-1.727-4.125-2.32c-2.219,1.438-4.234,2.461-6.047,3.07
			l-1.57-1.852c1.875-0.656,3.602-1.492,5.18-2.508c-0.906-0.516-2.313-1.25-4.219-2.203l1.617-1.734
			c1.531,0.75,3.117,1.585,4.758,2.507c1.766-1.359,2.984-2.5,3.656-3.421l2.015,1.195c-0.828,1.078-1.953,2.218-3.375,3.421
			l4.195,2.438c1.953-1.219,3.969-3.172,6.047-5.859l2.016,1.101c-1.422,2.094-3.391,4.094-5.906,6
			C38.314,40.117,40.744,41.781,43.916,44.063z"/>
	</g>
</g>
</svg>
