<?xml version="1.0" encoding="utf-8"?>
<!-- Generator: Adobe Illustrator 16.0.0, SVG Export Plug-In . SVG Version: 6.00 Build 0)  -->
<!DOCTYPE svg PUBLIC "-//W3C//DTD SVG 1.1//EN" "http://www.w3.org/Graphics/SVG/1.1/DTD/svg11.dtd">
<svg version="1.1" id="說明按鈕_1_" xmlns="http://www.w3.org/2000/svg" xmlns:xlink="http://www.w3.org/1999/xlink" x="0px"
	 y="0px" width="63px" height="63px" viewBox="0 0 63 63" enable-background="new 0 0 63 63" xml:space="preserve">
<g id="橢圓_4">
	<g>
		<circle fill="#2B535C" cx="31.5" cy="31.5" r="30.5"/>
	</g>
</g>
<g enable-background="new    ">
	<path fill="#F4F4F4" d="M30.007,36.853c-0.234-0.713-0.352-1.45-0.352-2.212c0-0.781,0.183-1.521,0.549-2.22
		c0.366-0.697,1.038-1.496,2.014-2.395c1.162-1.064,1.891-1.88,2.184-2.446s0.439-1.133,0.439-1.699
		c0-0.869-0.306-1.558-0.916-2.065s-1.389-0.762-2.336-0.762c-1.807,0-3.408,0.698-4.805,2.095v-3.472
		c1.641-1.006,3.389-1.509,5.245-1.509c1.875,0,3.381,0.462,4.519,1.384c1.138,0.924,1.706,2.215,1.706,3.875
		c0,0.967-0.222,1.867-0.666,2.703c-0.444,0.834-1.258,1.774-2.439,2.819c-1.133,1.006-1.833,1.772-2.102,2.3
		s-0.402,1.055-0.402,1.582c0,0.654,0.16,1.328,0.482,2.021H30.007z M29.568,41.511c0-0.566,0.212-1.052,0.637-1.457
		s0.935-0.608,1.531-0.608c0.567,0,1.067,0.195,1.501,0.586s0.651,0.884,0.651,1.479c0,0.566-0.207,1.047-0.622,1.443
		c-0.415,0.395-0.901,0.593-1.458,0.593c-0.654,0-1.191-0.203-1.611-0.608C29.778,42.534,29.568,42.058,29.568,41.511z"/>
</g>
</svg>
