<?xml version="1.0" encoding="utf-8"?>
<!-- Generator: Adobe Illustrator 16.0.0, SVG Export Plug-In . SVG Version: 6.00 Build 0)  -->
<!DOCTYPE svg PUBLIC "-//W3C//DTD SVG 1.1//EN" "http://www.w3.org/Graphics/SVG/1.1/DTD/svg11.dtd">
<svg version="1.1" xmlns="http://www.w3.org/2000/svg" xmlns:xlink="http://www.w3.org/1999/xlink" x="0px" y="0px" width="63px"
	 height="63px" viewBox="0 0 63 63" enable-background="new 0 0 63 63" xml:space="preserve">
<g id="圖層_2">
	<g id="橢圓_4_2_">
		<g>
			<circle fill="#F4F4F4" cx="31.5" cy="31.5" r="30.5"/>
		</g>
	</g>
</g>
<g id="圖層_5">
	<g>
		<path fill="#2B535C" d="M29.713,30.258H15.698v21.726H13.05V11.438h16.664V30.258z M27.159,19.5v-5.625H15.698V19.5H27.159z
			 M27.159,27.704v-5.813H15.698v5.813H27.159z M50.971,48.117c0,1.141-0.25,2.016-0.75,2.625s-1.059,0.996-1.676,1.16
			s-1.895,0.246-3.832,0.246c-0.938,0-2.117-0.023-3.539-0.07l-1.008-2.672c1.141,0.094,2.453,0.141,3.938,0.141
			c2.141,0,3.406-0.09,3.797-0.27s0.586-0.504,0.586-0.973V30.258H34.471v-18.82h16.5V48.117z M48.486,19.5v-5.625H36.908V19.5
			H48.486z M48.486,27.704v-5.813H36.908v5.813H48.486z"/>
	</g>
</g>
</svg>
